<?xml version="1.0" encoding="UTF-8"?>
<svg xmlns="http://www.w3.org/2000/svg" xmlns:xlink="http://www.w3.org/1999/xlink" viewBox="0 0 144 144" width="144px" height="144px">
<g id="surface38078897">
<path style=" stroke:none;fill-rule:nonzero;fill:rgb(18.039216%,80.000001%,44.313726%);fill-opacity:1;" d="M 45 105 C 43.5 105 42 104.398438 40.800781 103.199219 C 38.398438 100.800781 38.398438 97.199219 40.800781 94.800781 L 118.800781 16.800781 C 121.199219 14.398438 124.800781 14.398438 127.199219 16.800781 C 129.601562 19.199219 129.601562 22.800781 127.199219 25.199219 L 49.199219 103.199219 C 48 104.398438 46.5 105 45 105 Z M 45 105 "/>
<path style=" stroke:none;fill-rule:nonzero;fill:rgb(10.196079%,73.725492%,61.176473%);fill-opacity:1;" d="M 42 105 C 41.101562 105 40.5 104.699219 39.898438 104.101562 C 38.699219 102.898438 38.699219 101.101562 39.898438 99.898438 L 120.898438 18.898438 C 122.101562 17.699219 123.898438 17.699219 125.101562 18.898438 C 126.300781 20.101562 126.300781 21.898438 125.101562 23.101562 L 44.101562 104.101562 C 43.5 104.699219 42.898438 105 42 105 Z M 42 105 "/>
<path style=" stroke:none;fill-rule:nonzero;fill:rgb(56.470591%,64.313728%,68.235296%);fill-opacity:1;" d="M 24.898438 114.898438 L 29.101562 119.101562 L 19.199219 129 L 15 124.800781 Z M 24.898438 114.898438 "/>
<path style=" stroke:none;fill-rule:nonzero;fill:rgb(56.470591%,64.313728%,68.235296%);fill-opacity:1;" d="M 43.5 92.101562 L 51.898438 100.5 L 23.398438 129 L 15 120.601562 Z M 43.5 92.101562 "/>
<path style=" stroke:none;fill-rule:nonzero;fill:rgb(0%,0%,0%);fill-opacity:1;" d="M 36.300781 99.300781 L 44.699219 107.699219 L 23.398438 129 L 15 120.601562 Z M 54 81.601562 L 42.300781 93.300781 L 50.699219 101.699219 L 54 98.398438 Z M 54 81.601562 "/>
<path style=" stroke:none;fill-rule:nonzero;fill:rgb(0%,0%,0%);fill-opacity:1;" d="M 33 96 L 42 105 L 36 111 L 27 102 Z M 33 96 "/>
</g>
</svg>
